<?xml version="1.0" encoding="UTF-8" standalone="no"?><!DOCTYPE svg PUBLIC "-//W3C//DTD SVG 1.1//EN" "http://www.w3.org/Graphics/SVG/1.1/DTD/svg11.dtd"><svg width="100%" height="100%" viewBox="0 0 145 145" version="1.1" xmlns="http://www.w3.org/2000/svg" xmlns:xlink="http://www.w3.org/1999/xlink" xml:space="preserve" xmlns:serif="http://www.serif.com/" style="fill-rule:evenodd;clip-rule:evenodd;stroke-linejoin:round;stroke-miterlimit:1.41421;"><g id="画板1"><path d="M75.904,4.9c3,2.8 13.2,11.2 22.5,18.9c9.4,7.6 19.7,16.1 23,18.9l6,5l0.7,-4.7c0.3,-2.6 0.7,-7.2 0.7,-10.3c0.1,-5.4 0,-5.6 -5.4,-11c-3,-3 -8.2,-7 -11.5,-9c-6.9,-4.2 -21.9,-9.2 -33.5,-11.3l-8,-1.4l5.5,4.9Z" style="fill:rgb(115, 103, 240);fill-rule:nonzero;"/><path d="M53.104,2.8c-4,1.1 -10.7,3.7 -15,5.9c-7.5,4 -20.2,14.3 -22.3,18.3c-1,1.9 -0.9,2 2.3,1.3c2.9,-0.6 33.5,-7.4 55.1,-12.3l7.8,-1.8l-7.9,-6.7c-5.1,-4.3 -8.8,-6.7 -10.3,-6.6c-1.3,0 -5.7,0.9 -9.7,1.9Z" style="fill:rgb(115, 103, 240);fill-rule:nonzero;"/><path d="M20.904,31.9c-2.5,0.4 -6,1.1 -7.7,1.4c-2.9,0.5 -3.7,1.4 -6.7,7.8c-5,10.6 -6.6,18.4 -6.5,31.8c0.2,20.4 -0.4,20.8 15.4,-11.6c7.7,-15.8 14.2,-29.1 14.3,-29.6c0.4,-1.1 -2.6,-1 -8.8,0.2Z" style="fill:rgb(115, 103, 240);fill-rule:nonzero;"/><path d="M131.904,62.8c0,16.5 0.2,30 0.5,30c0.3,0 3,-1.6 6,-3.7c3.4,-2.2 5.8,-4.6 6.3,-6.2c1.2,-4.5 0.6,-18.3 -1.2,-25.1c-1.7,-6.4 -9.9,-25 -11,-25c-0.3,0 -0.6,13.5 -0.6,30Z" style="fill:rgb(115, 103, 240);fill-rule:nonzero;"/><path d="M54.904,38.7c-12.9,4 -21.9,15.5 -24.3,31.2c-2.8,17.9 5.4,34.6 18.9,38.5c9.9,2.8 19.9,-0.5 28.8,-9.5l5,-5l3,6.2c1.8,3.6 4.2,6.7 5.6,7.5c2.7,1.4 10.9,1.1 19.8,-0.8c5.2,-1.2 5.3,-1.3 5,-4.3c-0.3,-3 -0.6,-3.2 -4.9,-3.8c-8.3,-1.2 -14.1,-5.7 -17.7,-13.8l-2,-4.3l5.9,-11.2c7.4,-14.2 13.4,-29.5 12,-30.9c-0.6,-0.6 -3.8,-0.4 -9.6,0.8c-9.6,2 -9.2,1.6 -12,11.9l-1.7,6l-2.9,-5.4c-3.8,-7 -6.5,-9.8 -11.4,-12.1c-4.1,-1.9 -12.8,-2.4 -17.5,-1Zm14.6,13.2c2.8,2.7 7.2,12.4 8.6,19.3c1.1,5 1,5.8 -1.3,10.2c-1.3,2.6 -4.5,6.9 -7,9.6c-3.6,3.8 -5.2,4.8 -7.8,4.8c-8,0 -11.4,-5.9 -11.8,-21c-0.3,-9.1 0,-11.2 1.9,-16c3.9,-9.4 11.5,-12.4 17.4,-6.9Z" style="fill:rgb(115, 103, 240);fill-rule:nonzero;"/><path d="M7.004,87.2l-4.5,8.3l3.6,7.4c6.4,13.4 17,25 30,32.8l3.8,2.2l-1.6,-3.8c-0.9,-2.1 -5.3,-11.7 -9.9,-21.3c-4.5,-9.6 -9.9,-21.2 -12,-25.8c-2.1,-4.5 -4.1,-8.2 -4.4,-8.2c-0.3,0 -2.6,3.8 -5,8.4Z" style="fill:rgb(115, 103, 240);fill-rule:nonzero;"/><path d="M128.804,101.6c-7.4,5.4 -19.2,14.1 -26.2,19.4l-12.8,9.6l8.2,2.7c8,2.7 8.2,2.7 11.8,1c12,-5.7 22.3,-18.1 30.5,-36.8c1.4,-3.1 2.4,-5.7 2.3,-5.7c-0.2,0 -6.4,4.4 -13.8,9.8Z" style="fill:rgb(115, 103, 240);fill-rule:nonzero;"/><path d="M37.904,123.1c0,0.3 1.8,4.3 3.9,9c3.8,8.3 4,8.5 8.8,10.1c13.3,4.3 27.1,4.2 43.2,-0.6c6.4,-1.9 7,-2.3 5,-3.1c-1.3,-0.4 -14.8,-4 -29.9,-7.8c-15.1,-3.8 -28.3,-7.2 -29.2,-7.5c-1,-0.3 -1.8,-0.3 -1.8,-0.1Z" style="fill:rgb(115, 103, 240);fill-rule:nonzero;"/></g></svg>
